<svg viewBox="0 0 300 180" fill="currentColor" xmlns="http://www.w3.org/2000/svg">
  <path fill-rule="evenodd" clip-rule="evenodd" d="M202.078 68.881h9.522l.287 39.607-7.986.704-7.061-17.034.573 15.613h-9.367v-36.81l8.181-1.656 7.27 18.028-1.419-18.452Zm64.071 33.331v10.49l-17.599-1.27v-42.67l17.599-1.443v11.355l-7.548.286v6.266h6.415v9.087h-6.252v7.899h7.385ZM113.628 94.53l.189-9.935h-6.81v-7.718h7.845l.953-10.22h-19.16v47.202l10.364-1.933V94.53h6.619Zm14.119-25.02c-10.105 0-12.502 8.916-12.502 19.916s2.592 19.913 12.502 19.913c9.909 0 12.5-8.915 12.5-19.913 0-10.998-2.397-19.916-12.5-19.916Zm-.089 31.888c-1.351 0-1.587-5.319-1.587-11.88 0-6.56.192-11.877 1.587-11.877s1.583 5.317 1.583 11.877c0 6.561-.236 11.88-1.583 11.88Zm33.273-7.952s4.385-2.903 4.385-10.214c0-7.31-4.892-13.631-11.198-13.631h-12.49v38.889h9.8l.418-12.207 3.972 13.627 10.217-.853-5.107-15.611h.003Zm-9.365-4.256V78.4s3.088-.328 3.088 5.212-3.088 5.577-3.088 5.577Zm14.038-19.539 21.268 1.702v9.936h-5.641v26.966h-10.22V79.589h-5.407V69.65Zm60.124 3.02 21.568-1.125v9.936h-5.806v29.329h-10.216V82.607h-5.546v-9.936Z"/>
  <path d="M224.498 70.724H213.99v38.889h10.508v-38.89Zm43.244 39.754c0-1.544 1.165-2.707 2.629-2.707s2.629 1.165 2.629 2.707c0 1.543-1.165 2.708-2.629 2.708s-2.629-1.165-2.629-2.708Zm4.77 0c0-1.276-.943-2.252-2.141-2.252s-2.141.976-2.141 2.252c0 1.276.945 2.252 2.141 2.252 1.196 0 2.141-.976 2.141-2.252Zm-3.212-1.401h1.244c.615 0 .976.314.976.851 0 .472-.268.772-.661.867l.661.881v.189h-.441l-.74-1.008h-.567v1.008h-.472v-2.788Zm1.244 1.355c.299 0 .521-.157.521-.456 0-.298-.22-.441-.521-.441h-.772v.897h.772Z"/>
  <path d="M26.384 62.378v55.765h55.765V62.378H26.384Z" fill="#fff"/>
  <path fill-rule="evenodd" clip-rule="evenodd" d="M26.384 118.143V62.378h55.765v55.765H26.384Zm50.921-27.237c.489-1.446 1.042-3.61 1.133-5.348.07-1.311-.107-3.147-1.343-4.451-.987-1.042-2.494-1.568-4.48-1.568-2.508 0-4.529.885-6.008 2.637l-.39.46-.26-.545a3.196 3.196 0 0 0-.593-.885c-1.01-1.144-2.706-1.723-5.038-1.723-2.136 0-4.066.64-5.435 1.803l-.346.294-.238-.388c-.647-1.05-2.258-1.73-4.103-1.73-2.655 0-5.334.36-6.95 2.966l-.67 1.075-.053-1.266c-.04-.98-.13-1.387-.585-1.87-.502-.53-1.345-.79-2.578-.788-1.812 0-3.173.79-4.163 2.416-1.524 2.434-5.207 10.44-5.125 14.246.053 2.47 1.7 3.981 4.409 4.043 2.232.054 4.006-.519 5.133-1.656l.288-.29.276.299c1.013 1.099 2.553 1.705 4.337 1.705 2.271 0 4.213-.706 5.329-1.938l.305-.335.286.352c1.044 1.283 2.658 1.955 4.667 1.947 2.62-.012 5.066-1.215 6.712-3.3l.431-.547.241.653c1.014 2.758 3.763 3.17 5.313 3.17 5.265 0 7.538-3.611 9.498-9.438Z" fill="#FFED00"/>
  <path fill-rule="evenodd" clip-rule="evenodd" d="M26.384 118.143V62.378h55.765v55.765H26.384Zm51.27-23.155c.73-1.502 2.1-5.261 2.354-7.291l.003-.023c.309-2.478.601-4.823-1.07-7.153-1.19-1.656-3.215-2.767-6.297-2.767-2.33 0-4.41.63-6.074 2.014-1.424-1.41-3.468-2.05-6.217-2.05-2.152 0-3.958.493-5.531 1.437-1.142-.907-2.482-1.474-4.617-1.474-1.936 0-4.653.1-6.703 1.841-.474-.967-1.438-1.726-4.095-1.726-2.448 0-4.445 1.158-5.754 3.308-1.75 2.793-5.461 10.859-5.366 15.265.07 3.317 2.558 5.602 6.16 5.687 2.166.051 4.01-.412 5.416-1.346 1.273.916 2.899 1.412 4.705 1.412 2.163 0 4.113-.568 5.56-1.587 1.31 1.039 3.029 1.6 4.974 1.6 2.523.001 4.868-.87 6.762-2.528 1.292 1.647 3.505 2.504 6.192 2.504 5.032 0 7.645-3.094 9.599-7.123Z" fill="#E3000B"/>
  <path fill-rule="evenodd" clip-rule="evenodd" d="M26 118.52V62h56.52v56.519L26 118.52Zm55.741-.778.001-54.964H26.778v54.964h54.963Z"/>
  <path fill-rule="evenodd" clip-rule="evenodd" d="M78.631 79.05c0-.75.605-1.354 1.353-1.354.75 0 1.355.605 1.355 1.355s-.605 1.353-1.355 1.353a1.35 1.35 0 0 1-1.353-1.353Zm1.354-1.085a1.087 1.087 0 1 1 0 2.176c-.6 0-1.085-.488-1.085-1.089 0-.602.483-1.087 1.085-1.087Zm.527 1.51.162.283-.351.002-.112-.23a1.152 1.152 0 0 0-.191-.274c-.056-.057-.106-.072-.23-.072h-.052l-.001.575h-.29v-1.402h.7c.3 0 .442.168.442.39 0 .212-.142.365-.38.393l.001.007c.12.042.16.081.302.328Zm-.775-.9v.385h.293c.196 0 .26-.095.257-.194 0-.124-.098-.192-.289-.192h-.261Zm-13.43 3.349c1.365-1.618 3.386-2.776 6.307-2.776 5.057 0 6.38 3.306 6.214 6.43-.098 1.878-.7 4.115-1.151 5.453-2 5.944-4.402 9.703-9.87 9.703-2.494 0-4.777-.973-5.677-3.425-1.643 2.08-4.154 3.436-7.018 3.45-2.188.011-3.89-.762-4.972-2.091-1.284 1.418-3.457 2.066-5.617 2.067-1.94-.001-3.561-.677-4.624-1.832-1.185 1.195-3.047 1.829-5.42 1.774-3.037-.073-4.734-1.896-4.79-4.426-.084-3.917 3.647-12.003 5.184-14.458 1.062-1.742 2.536-2.597 4.494-2.598 1.075 0 2.178.188 2.86.91.562.594.652 1.121.693 2.12 1.721-2.772 4.621-3.15 7.282-3.149 2.036 0 3.726.762 4.435 1.914 1.365-1.16 3.33-1.895 5.687-1.895 2.413 0 4.211.588 5.33 1.855.247.278.422.49.653.974ZM39.687 95.57c.09-.947-.62-1.97-3.45-1.479.282-.63.7-1.492 1.174-2.472 1.52-3.14 3.621-7.477 3.66-9.174.022-.837-.315-1.535-1.672-1.534-1.434 0-2.333.6-3.07 1.81-1.598 2.55-4.99 10.247-4.919 13.573.04 1.902 1.515 2.652 3.152 2.69 2.258.053 4.859-.581 5.126-3.414Zm5.762-4.092a29.29 29.29 0 0 0-.828 2.692c.928-.232 1.624-.392 2.816-.365 1.36.034 2.23.597 2.229 1.721 0 2.724-3.013 3.524-5.1 3.524-2.294 0-4.31-1.304-4.31-3.813 0-2.94 1.595-7.4 3.09-10.37 1.837-3.646 3.715-4.131 6.947-4.131 1.42 0 3.057.607 3.057 1.948 0 1.86-1.573 2.569-3.135 2.658-.668.039-1.694.075-2.308.031 0 0-.521.793-1.072 2.203 2.891-.407 4.118.25 3.63 1.922-.66 2.26-2.619 2.41-5.016 1.98Zm12.549-6.001c.382-.535.892-1.03 1.674-1.03.96 0 .867.507.64 1.156-.647 1.846 1.305 1.895 1.782 1.857 1.704-.133 2.643-1.234 2.875-3.11.316-2.554-1.836-3.535-4.564-3.535-4.547 0-6.331 2.781-8.034 6.757-.8 1.867-1.807 5.058-1.806 7.09 0 2.854 1.736 4.402 4.535 4.402 4.087 0 6.975-3.26 7.8-7.32.255-1.25.568-3.595-2.607-3.465-1.611.067-2.583.423-3.096 2.07-.527 1.695 1.386 1.742 1.386 1.742-.385 1.753-1.512 2.817-2.516 2.817-.627 0-1.197-.272-1.006-1.598.283-1.94 2.1-6.656 2.937-7.833Zm18.845 2.325c-.482 2.394-1.562 5.226-2.736 7.336-1.915 3.443-4.239 3.925-6.27 3.9-2.03-.025-4.319-.774-4.336-3.907-.012-2.248.957-5.423 1.78-7.502 1.438-3.771 2.903-6.847 7.54-6.792 5.406.063 4.442 4.872 4.022 6.965Zm-6.782 6.135c.752-1.273 2.868-7.049 2.926-8.493.017-.42-.052-.91-.73-.918-.466-.007-.87.084-1.234.645-.817 1.062-3.209 7.594-3.168 8.898.015.468.276.877.852.877.662 0 1.03-.455 1.355-1.009Z"/>
</svg>
